ModelForces
version=1
nRows=5
nColumns=94
inDegrees=yes

This file contains the forces exerted on a model during a simulation.

A force is a generalized force, meaning that it can be either a force (N) or a torque (Nm).

Units are S.I. units (second, meters, Newtons, ...)
Angles are in degrees.

endheader 
time	addbrev_l	addlong_l	addmagDist_l	addmagIsch_l	addmagMid_l	addmagProx_l	bflh_l	bfsh_l	edl_l	ehl_l	fdl_l	fhl_l	gaslat_l	gasmed_l	glmax1_l	glmax2_l	glmax3_l	glmed1_l	glmed2_l	glmed3_l	glmin1_l	glmin2_l	glmin3_l	grac_l	iliacus_l	perbrev_l	perlong_l	piri_l	psoas_l	recfem_l	sart_l	semimem_l	semiten_l	soleus_l	tfl_l	tibant_l	tibpost_l	vasint_l	vaslat_l	vasmed_l	addbrev_r	addlong_r	addmagDist_r	addmagIsch_r	addmagMid_r	addmagProx_r	bflh_r	bfsh_r	edl_r	ehl_r	fdl_r	fhl_r	gaslat_r	gasmed_r	glmax1_r	glmax2_r	glmax3_r	glmed1_r	glmed2_r	glmed3_r	glmin1_r	glmin2_r	glmin3_r	grac_r	iliacus_r	perbrev_r	perlong_r	piri_r	psoas_r	recfem_r	sart_r	semimem_r	semiten_r	soleus_r	tfl_r	tibant_r	tibpost_r	vasint_r	vaslat_r	vasmed_r	lumbar_extension	lumbar_bending	lumbar_rotation	arm_flex_l	arm_add_l	arm_rot_l	arm_flex_r	arm_add_r	arm_rot_r	elbow_flex_l	elbow_flex_r	pro_sup_l	pro_sup_r	
          6.59081634	         30.23165767	         31.67875555	         26.04479613	          6.09074938	         46.34565911	         16.22269021	         52.65846038	        118.58319050	         82.19639941	         20.43773699	          4.19856914	         14.97402204	         44.57239035	        224.74681728	         29.24221919	         73.95627893	         45.70040052	         88.44592730	         23.69742598	          8.73334971	         14.99225439	         13.64571157	          1.32501157	         18.51851157	        326.74350783	          4.27531043	        133.38796626	         28.87218630	        105.82584694	          7.47961789	         12.08077027	        528.80894778	         20.12589086	         43.17243084	         31.49971370	        261.45928026	         46.27245447	          7.24194176	         65.84594662	         15.73687969	        258.95048276	        224.57473765	          1.89854325	          1.61046447	        244.03813691	        346.00574270	          0.00610878	        365.92984554	        215.86690645	          0.00140423	          4.86094153	         35.25034901	          4.46591568	          6.55624105	          6.75503731	          8.36349096	          3.05305853	         12.45338173	          8.93941909	          9.82309969	         86.12640017	         93.02780808	         20.71859564	         82.19090007	        729.17995310	         15.92207969	         20.47754770	         48.15577931	        727.28107346	        341.97122278	        241.41992629	          0.18139774	         15.15385529	         -0.00024777	        248.76381751	         24.76512560	        115.37866139	         24.87466388	         73.77167772	         34.58955582	       -134.25244146	        -75.88010608	        -16.69711325	        109.68613056	        -52.79087835	         14.94928735	        -47.54093578	         75.37756624	        -35.82193462	        -12.37562717	         -1.71010892	         -0.77288338	         -1.34444976	
          6.60085036	         24.55308651	         27.56297953	         15.10372640	          2.02136980	         27.49908412	         13.31393012	         20.22623685	        156.81912964	         96.99758442	         20.21484143	          3.37292075	         11.30065508	         35.28014876	        258.62215942	         19.62376214	         48.94176614	         28.22359138	         65.16395415	         16.88475687	          5.36257138	         11.61319154	         10.82358813	          0.43306756	         12.39228817	        299.68230489	        118.33992246	         45.89650758	         12.14621100	        392.34521068	         12.44315949	        193.45572991	        302.44068937	         10.97253022	         21.49416266	         35.13739762	        296.23594835	        136.44000435	          4.52324372	         46.78116594	         10.79816738	        355.45353053	        361.05214677	          2.34795053	          1.74581763	        239.18637316	        407.23180104	          0.00495031	        300.49591892	        234.28893029	         53.57154248	         27.86064098	         31.37556447	          2.13375774	          1.11190830	          5.59508790	          6.55018151	          2.66186652	         11.53486781	          7.94370733	          8.46361167	         71.05670615	         76.15247001	         18.80152704	        102.42480425	        772.33593029	         12.38481578	         27.93082910	         49.09252173	        793.47023534	         81.80169896	        234.16477840	          0.01147047	         10.41693868	         -0.00004605	        328.83440225	         59.58426802	        168.26404746	         27.18235282	         80.66453133	         38.04775916	       -175.56237390	       -131.74179888	          1.00899596	         83.67045948	        -18.12903191	          8.17493345	          2.20618962	         18.86302627	        -31.16044674	         -5.56726992	         -1.81110864	         -0.89574445	         -0.85485890	
          6.61088437	         21.79202334	         26.36938084	          9.91510177	          0.14413316	         19.00377056	         11.43681281	          8.11816726	        128.15588277	         78.15647780	         25.54871492	          6.22946618	         19.50049682	         25.87236252	        145.05269675	         14.30964941	         34.87574167	         19.21152477	         52.77980396	         13.52986668	          3.82015270	          9.98101235	          9.82693631	          0.56425432	          9.35123193	        266.51672206	        180.05551427	         97.44419571	         62.68600129	        699.53822595	         22.48415583	        259.14385148	         64.55438926	          6.65993003	          6.24207968	         51.26364085	        283.61565410	        212.82687702	          3.80263720	         40.64164493	          9.25817066	        450.50122685	        513.24539724	          3.30623893	          2.57574366	        407.94622379	        490.87263412	          0.00439560	        202.51824702	        288.40431405	         71.84927336	         22.50849051	         28.25548167	          5.84333202	          9.22155361	          5.49780967	          6.69231489	          3.76662527	         10.07273840	          7.19856990	          7.94301737	         55.69313296	         60.99708026	         15.96120767	        110.16461389	        750.61398684	         36.67689654	         35.26303156	         48.38907435	        796.58179189	        647.85442259	        218.47250366	          0.00514593	          6.67274591	         27.59687758	        401.97991701	        124.95310594	        180.50443139	         31.31971081	         92.44686430	         44.05382836	       -197.35296493	       -163.28617645	        -24.16512780	        100.20149349	        -19.21145136	         14.04117105	          9.16612285	        -23.38621706	          9.21639192	          3.92977961	         -8.43771723	          0.87512261	          0.92729277	
          6.62091839	         17.43106613	         22.35623935	          8.02295955	          0.00044214	         14.86029800	          9.54156340	          6.27754131	        102.35872212	        102.70756807	          0.00092587	          0.00130396	          0.00184956	         15.37877224	        145.18286563	         12.78714888	         30.30565493	         16.41338104	         46.12164083	         11.69883207	          3.25881615	          8.10638901	          9.52530466	          1.05904969	          7.74782571	        223.35618369	        224.62337648	        117.05183310	        100.84047261	        560.94498627	          5.21685302	        214.58872739	         43.55330169	          5.23372570	          6.04750304	          0.01464304	        420.71982997	        306.18335281	          3.44380634	         21.40128058	          5.59706630	        463.44527205	        631.76517299	          3.95150579	          3.39179916	        334.55804069	        513.83291070	          0.00306822	        128.81948876	        306.91521947	         69.19730976	         17.36541548	         25.67518800	         14.29901569	         30.49017423	          6.04588248	          7.74680413	          5.08399756	          9.58375172	          7.21909536	          8.30309001	         44.30306965	         49.87515547	         13.73750052	         63.45308180	        671.57822066	         16.51376971	         49.37203438	         49.51335147	        761.30722540	       1469.79381715	        172.80757074	          0.00158508	          4.25902967	         68.16600704	        444.28424440	        122.64743421	        127.23943123	         34.40253175	        100.25495785	         48.65395257	       -170.73337758	       -126.18354499	        -80.64906855	        112.20126332	        -14.71958323	         22.57031445	        -26.71672710	        -46.74070715	         44.53719447	          8.36126620	         -5.80479898	          1.40891706	          1.60479884	
          6.63095240	         11.01689931	         14.93307823	          7.49928272	          0.80826579	         11.92044609	          7.18102923	         12.47848156	         81.31567461	          2.77301116	         59.80390219	         33.70649865	         95.64269140	         17.16524682	         73.12276758	         14.18403012	         32.48977336	         17.33318600	         19.47592320	         30.86520000	         63.72516933	          6.04988755	          7.99268220	         19.91570611	          6.44502457	        176.08002349	          0.00221092	         33.39659436	        199.32786776	        430.40064855	        266.49715483	        172.61985738	         48.83359743	          5.14791656	         27.60793037	         93.73998446	        735.46966971	        435.15122420	         52.38676358	        288.89933974	         99.03423199	        440.81128710	        563.72420710	          4.07388360	          3.74025019	        426.50181736	        494.02421379	          0.00415045	        105.25163616	        287.62846306	         68.71630746	         12.66814541	         20.24593741	         13.30202167	         30.90092641	          6.05030888	          7.82927576	          5.18281639	          9.90833760	          7.09892197	          7.84657767	         37.09003523	         40.17795243	         10.68072797	         98.07816202	        668.89736300	         46.02821455	         59.34731924	         42.79619171	        727.87901008	       2556.69244715	        143.94562721	          0.00003644	          3.29149018	        110.39787428	        376.36343395	        156.18227566	        107.36891756	         34.26580146	         98.50049743	         48.77220789	       -168.91007852	       -126.38775633	       -111.48110915	        120.98565653	         -4.75405857	         31.88499663	        -57.28677714	        -37.65722506	         58.51154769	         17.56313976	         -5.22979955	          1.29759904	          1.93661383	
